<svg width="24" height="18" viewBox="0 0 24 18" fill="none" xmlns="http://www.w3.org/2000/svg">
<path d="M22.0788 0H1.92091C1.59002 0 1.28025 0.0801278 1 0.2122L11.9521 11L14.4068 8.67629C14.4068 8.67629 14.407 8.67606 14.407 8.67596C14.4071 8.67587 14.4073 8.67578 14.4073 8.67578L23 0.212388C22.7197 0.0802219 22.4097 0 22.0788 0Z" fill="#E8E8E8"/>
<path d="M23.7927 1L16 8.99993L23.7924 17C23.9216 16.7227 24 16.4162 24 16.0889V1.9108C24 1.58362 23.9218 1.27718 23.7927 1Z" fill="#E8E8E8"/>
<path d="M0.207608 1C0.0783939 1.27727 0 1.58376 0 1.91112V16.0891C0 16.4163 0.0783018 16.7228 0.207424 17L8 9.00012L0.207608 1Z" fill="#E8E8E8"/>
<path d="M14.9141 10.0001L12.459 12.2738C12.3191 12.4087 12.1357 12.4761 11.9524 12.4761C11.7692 12.4761 11.5858 12.4087 11.4459 12.2738L9.08636 10L1 17.7922C1.2803 17.9215 1.59026 18 1.92124 18H22.0791C22.41 18 22.7197 17.9216 23 17.7924L14.9141 10.0001Z" fill="#E8E8E8"/>
</svg>
