<svg width="22" height="30" viewBox="0 0 22 30" fill="none" xmlns="http://www.w3.org/2000/svg">
<path d="M15 0H22V8H15V0Z" fill="white"/>
<path d="M0 0H7V8H0V0Z" fill="white"/>
<path d="M15 21C15 23.2091 13.2091 25 11 25C8.79086 25 7 23.2091 7 21C7 18.7909 8.79086 17 11 17C13.2091 17 15 18.7909 15 21Z" fill="white"/>
<path fill-rule="evenodd" clip-rule="evenodd" d="M2 21.5C2 16.8056 6.02941 13 11 13C15.9706 13 20 16.8057 20 21.5C20 26.1944 15.9706 30 11 30C6.02941 30 2 26.1943 2 21.5ZM5 21.5C5 24.5327 7.69162 27 11 27C14.3084 27 17 24.5327 17 21.5C17 18.4673 14.3084 16 11 16C7.69162 16 5 18.4673 5 21.5Z" fill="white"/>
<path d="M6.67046 11.5499C7.42155 11.1861 8.20089 10.9322 9 10.7886L7.43818 9H1L4.49293 13C5.16097 12.4143 5.88932 11.9283 6.67046 11.5499Z" fill="white"/>
<path d="M12 10.7886C12.7991 10.9321 13.5784 11.186 14.3295 11.5499C15.1107 11.9282 15.839 12.4142 16.5071 13L20 9H13.5618C13.1411 9.48174 12.5528 10.1554 12 10.7886Z" fill="white"/>
</svg>
