<svg width="37" height="30" viewBox="0 0 37 30" fill="none" xmlns="http://www.w3.org/2000/svg">
<path d="M34.634 11H27.069C24.8218 11 23 12.7655 23 14.9433V26.0567C23 28.2345 24.8218 30 27.069 30H35.5585L36.9915 13.4849C37.1076 12.1475 36.0188 11 34.634 11Z" fill="#58BEBF"/>
<path d="M18.9419 0H17.0586L16.3308 8.83048C16.1241 11.3388 13.9845 13.2713 11.4141 13.2713H10V27.5854H14.7938C14.7938 27.6196 14.7937 27.6537 14.7936 27.6876C14.7922 28.9644 15.8489 30 17.1532 30H22.3137C21.3778 28.9303 20.8105 27.5426 20.8105 26.0269V14.8297C20.8105 12.9727 21.6612 11.3074 23 10.1848V3.97301C23.0001 1.77879 21.1831 0 18.9419 0Z" fill="#58BEBF"/>
<path d="M0 12H8V29H0V12Z" fill="#58BEBF"/>
</svg>
