<svg width="22" height="30" viewBox="0 0 22 30" fill="none" xmlns="http://www.w3.org/2000/svg">
<path fill-rule="evenodd" clip-rule="evenodd" d="M5 20.5C5 17.4673 7.46725 15 10.5 15C13.5327 15 16 17.4673 16 20.5C16 23.5327 13.5327 26 10.5 26C7.46731 26 5 23.5327 5 20.5ZM7 21.3404L9.85527 24L15 19.2078L13.7034 18L9.85527 21.5845L8.29659 20.1326L7 21.3404Z" fill="#58BEBF"/>
<path d="M16 3.50584H13.8503C13.8503 1.56962 12.3503 0 10.5 0C8.64971 0 7.14974 1.56962 7.14974 3.50584H5V8H15.9999L16 3.50584Z" fill="#58BEBF"/>
<path fill-rule="evenodd" clip-rule="evenodd" d="M18.434 9.24395V3H22V30H0V3H3.56604V9.24395H18.434ZM4 20.5C4 24.6355 7.36445 28 11.5 28C15.6355 28 19 24.6355 19 20.5C19 16.3645 15.6355 13 11.5 13C7.36451 13 4 16.3645 4 20.5Z" fill="#58BEBF"/>
</svg>
