<svg width="70" height="70" viewBox="0 0 70 70" fill="none" xmlns="http://www.w3.org/2000/svg">
<path fill-rule="evenodd" clip-rule="evenodd" d="M44.1291 9.47871H70V46.5295H44.1293V70H25.8709V46.5295H0V9.47871H25.8709V5.4775L35 0L44.1291 5.4775V9.47871ZM35.0001 5L30.0001 8.21221H30V10H40V8.21221L35.0001 5ZM30 66V47H40V66H30ZM4 14V43H66V14H4Z" fill="#F78434"/>
<path fill-rule="evenodd" clip-rule="evenodd" d="M27.3098 33.0861L25.812 37L22 35.555L28.3336 19.0035L31.7201 19L38 35.563L34.1836 36.9965L32.701 33.0861H27.3098ZM29 29H31L30.0047 26L29 29Z" fill="#F78434"/>
<path d="M48 32.8447H43.1519V19H39V37H48V32.8447Z" fill="#F78434"/>
<path d="M61 32.8181H55.1802V30.091H60.5708V25.9091H55.1802V23.1819H61V19H51V37H61V32.8181Z" fill="#F78434"/>
<path d="M14.4538 23.2928C15.9772 22.5988 18.2671 24.2866 19.4925 25.4201L22 22.1648C18.3182 18.7059 15.2294 18.6794 13.2666 19.3251C11.3108 19.9317 9.92303 21.52 9.63837 23.4846C9.36501 25.3706 10.1537 27.1843 11.6969 28.2174C11.9645 28.3965 13.8086 29.2059 16.0221 30.0587C16.8446 30.3701 17.6843 30.9278 17.5746 31.5584C17.4842 32.0784 16.7787 32.8476 15.5511 32.8476C13.5666 32.9659 12.0952 31.3041 10.9948 29.9398L8 32.7271C9.84921 35.1567 12.361 37.067 15.5512 36.9982C18.5546 36.9982 21.0789 35.0173 21.5535 32.288C21.913 30.2207 21.0161 27.5263 17.4208 26.1645C15.824 25.5596 14.3333 24.9021 13.816 24.6703C13.4513 24.2012 13.5898 23.6553 14.4538 23.2928Z" fill="#F78434"/>
</svg>
