<svg width="70" height="70" viewBox="0 0 70 70" fill="none" xmlns="http://www.w3.org/2000/svg">
<path fill-rule="evenodd" clip-rule="evenodd" d="M26.9831 24.4964L24 27.2453C26.1133 29.9223 28.9744 32.1379 32.4838 32.8474V37H36.5097V33.13C40.3428 32.8635 44.2313 29.9237 44.8835 26.0166C45.7936 20.712 41.2187 17.5367 36.5097 16.0649V8.02529C38.5437 8.23952 40.8349 9.8967 42.4893 11.3384L44.9868 8.12777C42.6724 5.94307 38.9098 3.96141 36.5096 3.89755V0H32.4837V4.12774C29.3197 4.81681 26.718 7.37279 26.2952 10.508C25.9103 15.008 27.978 17.2414 32.4837 18.8328V28.6257C28.9544 27.6601 26.9831 24.4964 26.9831 24.4964ZM30.0452 10.7059C30.2005 9.50366 30.9192 8.52213 32 8V14C30.0016 13.2472 29.8989 11.8376 30.0452 10.7059ZM37 29C39.2787 28.6123 41 26.8342 41 25.096C41 21.5877 37.4335 20.1723 37.0328 20.0132C37.0164 20.0068 37.0054 20.0024 37 20V29Z" fill="white"/>
<path fill-rule="evenodd" clip-rule="evenodd" d="M62.9394 55.946V48.5265L63.8468 49.0646L65.9572 45.5884L51.4746 37L36.992 45.5885L39.1024 49.0647L40.0098 48.5266V55.9461H29.9904V48.5266L30.8978 49.0647L33.0081 45.5885L18.5254 37L4.04277 45.5885L6.15316 49.0647L7.06057 48.5266V55.9461H0V60H70V55.9461H62.9394V55.946ZM20.5889 56V51.1246H16.4111V56H11V46.2996L18.5 42L26 46.2996V56H20.5889ZM53.5889 51.1246V56H59V46.2996L51.5 42L44 46.2996V56H49.4111V51.1246H53.5889Z" fill="white"/>
<path d="M0 66H70V70H0V66Z" fill="white"/>
</svg>
