<svg width="20" height="20" viewBox="0 0 20 20" fill="none" xmlns="http://www.w3.org/2000/svg">
<path fill-rule="evenodd" clip-rule="evenodd" d="M18.896 3.70598e-08H1.10305C0.493789 0.000312537 -0.000156213 0.494531 3.70598e-08 1.10398V18.897C0.000312537 19.5062 0.494531 20.0002 1.10398 20H18.896C19.5056 20.0002 19.9998 19.5061 20 18.8965C20 18.8963 20 18.8962 20 18.896V1.10305C19.9997 0.493789 19.5055 -0.000156213 18.896 3.70598e-08Z" fill="#4267B2"/>
<path fill-rule="evenodd" clip-rule="evenodd" d="M13.847 20V12.2563H16.5111L16.9102 9.22531H13.847V7.2949C13.847 6.41935 14.0951 5.82277 15.3762 5.82277H17V3.11917C16.7175 3.08236 15.7483 3 14.6204 3C12.2657 3 10.6541 4.40795 10.6541 6.99469V9.22531H8V12.2563H10.6541V20H13.847Z" fill="white"/>
</svg>
