<svg width="21" height="20" viewBox="0 0 21 20" fill="none" xmlns="http://www.w3.org/2000/svg">
<path fill-rule="evenodd" clip-rule="evenodd" d="M0 20H4V7H0V20Z" fill="#006699"/>
<path fill-rule="evenodd" clip-rule="evenodd" d="M2.51456 0C0.99412 0 0 1.0803 0 2.50026C0 3.88885 0.964515 5 2.45616 5H2.48512C4.03532 5 5 3.88885 5 2.50026C4.97104 1.0803 4.03532 0 2.51456 0Z" fill="#006699"/>
<path fill-rule="evenodd" clip-rule="evenodd" d="M15.7199 6C13.2864 6 12.196 7.32578 11.5865 8.25797V6.32105H7V20H11.5864V12.361C11.5864 11.9521 11.6162 11.5439 11.7373 11.2515C12.0688 10.4348 12.8235 9.58876 14.0905 9.58876C15.7501 9.58876 16.414 10.8432 16.414 12.6821V20H21V12.1567C21 7.95507 18.7373 6 15.7199 6Z" fill="#006699"/>
</svg>
