<svg width="24" height="20" viewBox="0 0 24 20" fill="none" xmlns="http://www.w3.org/2000/svg">
<path fill-rule="evenodd" clip-rule="evenodd" d="M7.54782 19.9998C16.605 19.9998 21.5577 12.306 21.5577 5.63433C21.5577 5.41593 21.5533 5.1983 21.5438 4.98178C22.5052 4.26919 23.3408 3.37975 24 2.36727C23.1177 2.76949 22.1681 3.03999 21.1723 3.16227C22.1888 2.53717 22.9695 1.54843 23.3375 0.369663C22.3861 0.947948 21.3325 1.36818 20.2108 1.59505C19.3123 0.613826 18.0329 0 16.6164 0C13.8973 0 11.6922 2.26098 11.6922 5.04815C11.6922 5.44454 11.7353 5.8298 11.8199 6.19947C7.72742 5.98839 4.09857 3.97947 1.67022 0.924254C1.24738 1.67052 1.00353 2.53736 1.00353 3.46215C1.00353 5.21371 1.87297 6.76022 3.19465 7.66468C2.38683 7.6393 1.62804 7.41185 0.964642 7.03338C0.963891 7.05466 0.963891 7.07513 0.963891 7.09772C0.963891 9.54305 2.66111 11.5847 4.91442 12.0473C4.50069 12.1626 4.06517 12.2249 3.61603 12.2249C3.2992 12.2249 2.99063 12.1929 2.69047 12.1338C3.31738 14.14 5.1353 15.5997 7.29045 15.6406C5.60515 16.995 3.48195 17.8019 1.17472 17.8019C0.777716 17.8019 0.385453 17.7785 0 17.732C2.17915 19.1642 4.76709 20 7.54801 20" fill="#1DA1F2"/>
</svg>
