<svg width="29" height="20" viewBox="0 0 29 20" fill="none" xmlns="http://www.w3.org/2000/svg">
<path fill-rule="evenodd" clip-rule="evenodd" d="M28.4025 3.12951C28.0682 1.9058 27.0887 0.941241 25.8468 0.611743C23.5774 0 14.4998 0 14.4998 0C14.4998 0 5.42245 0 3.15308 0.588422C1.93485 0.917698 0.931458 1.90603 0.597164 3.12951C0 5.36459 0 10 0 10C0 10 0 14.6587 0.597164 16.8705C0.931685 18.094 1.91095 19.0588 3.15331 19.3883C5.44636 20 14.5001 20 14.5001 20C14.5001 20 23.5774 20 25.8468 19.4116C27.0889 19.0823 28.0682 18.1175 28.4027 16.894C28.9999 14.6587 28.9999 10.0235 28.9999 10.0235C28.9999 10.0235 29.0238 5.36459 28.4025 3.12951Z" fill="#FF0000"/>
<path fill-rule="evenodd" clip-rule="evenodd" d="M12 15L20 10.5L12 6V15Z" fill="white"/>
</svg>
