<svg width="217" height="42" viewBox="0 0 217 42" fill="none" xmlns="http://www.w3.org/2000/svg">
<path fill-rule="evenodd" clip-rule="evenodd" d="M127.176 12.2877C126.627 12.7626 125.902 13 125 13C124.098 13 123.373 12.7626 122.824 12.2877C122.275 11.8128 122 11.2216 122 10.514C122 9.78771 122.275 9.18715 122.824 8.71229C123.373 8.23743 124.098 8 125 8C125.902 8 126.627 8.23743 127.176 8.71229C127.725 9.18715 128 9.78771 128 10.514C128 11.2216 127.725 11.8128 127.176 12.2877ZM64 27.2942V31H52V11H57.1429V27.2942H64ZM77.8748 30.035C76.5927 30.6783 75.1393 31 73.5147 31C71.89 31 70.4318 30.6783 69.1399 30.035C67.848 29.3916 66.8351 28.4639 66.101 27.2517C65.367 26.0396 65 24.6224 65 23C65 21.3776 65.367 19.9604 66.101 18.7483C66.8351 17.5361 67.848 16.6084 69.1399 15.965C70.4318 15.3217 71.89 15 73.5147 15C75.1393 15 76.5927 15.3217 77.8748 15.965C79.1569 16.6084 80.1649 17.5361 80.899 18.7483C81.633 19.9604 82 21.3776 82 23C82 24.6224 81.633 26.0396 80.899 27.2517C80.1649 28.4639 79.1569 29.3916 77.8748 30.035ZM73.5152 27C72.5253 27 71.6919 26.6606 71.0152 25.9818C70.3384 25.303 70 24.3139 70 23.0145C70 21.7152 70.3384 20.7212 71.0152 20.0327C71.6919 19.3442 72.5253 19 73.5152 19C74.5051 19 75.3333 19.3442 76 20.0327C76.6667 20.7212 77 21.7152 77 23.0145C77 24.3139 76.6667 25.303 76 25.9818C75.3333 26.6606 74.5051 27 73.5152 27ZM96.4788 37.9416C95.2858 38.6472 93.8042 39 92.034 39C89.6095 39 87.6709 38.4327 86.2182 37.298C84.7654 36.1633 83.8947 34.6234 83.6061 32.6782H88.4839C88.6378 33.3266 88.989 33.8319 89.5373 34.1943C90.0857 34.5566 90.8025 34.7378 91.6876 34.7378C92.7074 34.7378 93.53 34.447 94.1553 33.8653C94.7807 33.2837 95.0934 32.354 95.0934 31.0763V28.2729C94.6701 29.2265 94.0158 29.9797 93.1307 30.5328C92.2456 31.0858 91.1873 31.3623 89.9559 31.3623C88.6282 31.3623 87.44 31.0334 86.3913 30.3754C85.3427 29.7175 84.5153 28.7688 83.9092 27.5292C83.3031 26.2896 83 24.8403 83 23.1812C83 21.503 83.3031 20.0489 83.9092 18.8188C84.5153 17.5888 85.3427 16.6448 86.3913 15.9869C87.44 15.329 88.6282 15 89.9559 15C91.1873 15 92.2456 15.2765 93.1307 15.8296C94.0158 16.3826 94.6701 17.1359 95.0934 18.0894V15.2002H100V31.0763C100 32.5638 99.7114 33.9035 99.1341 35.0954C98.5569 36.2872 97.6718 37.236 96.4788 37.9416ZM91.4857 27C90.4381 27 89.5952 26.6471 88.9571 25.9412C88.319 25.2353 88 24.2549 88 23C88 21.7451 88.319 20.7647 88.9571 20.0588C89.5952 19.3529 90.4381 19 91.4857 19C92.5143 19 93.3571 19.3578 94.0143 20.0735C94.6714 20.7892 95 21.7647 95 23C95 24.2157 94.6714 25.1863 94.0143 25.9118C93.3571 26.6373 92.5143 27 91.4857 27ZM115.875 30.035C114.593 30.6783 113.139 31 111.515 31C109.89 31 108.432 30.6783 107.14 30.035C105.848 29.3916 104.835 28.4639 104.101 27.2517C103.367 26.0396 103 24.6224 103 23C103 21.3776 103.367 19.9604 104.101 18.7483C104.835 17.5361 105.848 16.6084 107.14 15.965C108.432 15.3217 109.89 15 111.515 15C113.139 15 114.593 15.3217 115.875 15.965C117.157 16.6084 118.165 17.5361 118.899 18.7483C119.633 19.9604 120 21.3776 120 23C120 24.6224 119.633 26.0396 118.899 27.2517C118.165 28.4639 117.157 29.3916 115.875 30.035ZM111.515 27C110.525 27 109.692 26.6606 109.015 25.9818C108.338 25.303 108 24.3139 108 23.0145C108 21.7152 108.338 20.7212 109.015 20.0327C109.692 19.3442 110.525 19 111.515 19C112.505 19 113.333 19.3442 114 20.0327C114.667 20.7212 115 21.7152 115 23.0145C115 24.3139 114.667 25.303 114 25.9818C113.333 26.6606 112.505 27 111.515 27ZM127 15H122V31H127V15ZM135.935 28.4007V39H131V15.2022H135.935V18.1191C136.34 17.1564 136.984 16.3959 137.869 15.8375C138.754 15.2792 139.813 15 141.044 15C142.372 15 143.56 15.3321 144.609 15.9964C145.657 16.6607 146.485 17.6137 147.091 18.8556C147.697 20.0975 148 21.5656 148 23.2599C148 24.935 147.697 26.3983 147.091 27.6498C146.485 28.9013 145.657 29.8592 144.609 30.5235C143.56 31.1877 142.372 31.5199 141.044 31.5199C139.813 31.5199 138.754 31.2407 137.869 30.6823C136.984 30.1239 136.34 29.3634 135.935 28.4007ZM139.514 27C138.486 27 137.643 26.6373 136.986 25.9118C136.329 25.1863 136 24.2157 136 23C136 21.7647 136.329 20.7892 136.986 20.0735C137.643 19.3578 138.486 19 139.514 19C140.562 19 141.405 19.3529 142.043 20.0588C142.681 20.7647 143 21.7451 143 23C143 24.2549 142.681 25.2353 142.043 25.9412C141.405 26.6471 140.562 27 139.514 27ZM161.06 30.4126C160.109 30.8042 158.984 31 157.684 31C155.491 31 153.735 30.5338 152.416 29.6014C151.096 28.669 150.291 27.3357 150 25.6014H154.802C154.88 26.2727 155.176 26.7855 155.69 27.1399C156.204 27.4942 156.869 27.6713 157.684 27.6713C158.247 27.6713 158.674 27.5455 158.965 27.2937C159.256 27.042 159.401 26.711 159.401 26.3007C159.401 25.7599 159.134 25.373 158.601 25.1399C158.067 24.9068 157.199 24.6597 155.996 24.3986C154.793 24.1562 153.803 23.8951 153.027 23.6154C152.251 23.3357 151.581 22.8834 151.019 22.2587C150.456 21.634 150.175 20.7809 150.175 19.6993C150.175 18.3007 150.728 17.1678 151.834 16.3007C152.94 15.4336 154.502 15 156.52 15C158.577 15 160.221 15.4942 161.453 16.4825C162.685 17.4709 163.457 18.7762 163.767 20.3986H159.11C158.974 19.7646 158.669 19.2657 158.193 18.9021C157.718 18.5385 157.121 18.3566 156.403 18.3566C155.841 18.3566 155.414 18.4732 155.123 18.7063C154.832 18.9394 154.686 19.2704 154.686 19.6993C154.686 20.1841 154.953 20.5478 155.486 20.7902C156.02 21.0326 156.859 21.2751 158.004 21.5175C159.246 21.7972 160.265 22.0816 161.06 22.3706C161.856 22.6597 162.545 23.1305 163.127 23.7832C163.709 24.4359 164 25.3124 164 26.4126C164 27.3077 163.748 28.1002 163.243 28.7902C162.739 29.4802 162.011 30.021 161.06 30.4126ZM171.94 31C173.133 31 174.18 30.7258 175.08 30.1773C175.98 29.6288 176.657 28.8913 177.112 27.9645V30.8298H182V15H177.112V23.3972C177.112 24.5508 176.828 25.4397 176.259 26.0638C175.691 26.6879 174.914 27 173.929 27C172.982 27 172.229 26.7021 171.67 26.1064C171.111 25.5106 170.831 24.6738 170.831 23.5957V15H166V24.1915C166 26.3097 166.535 27.974 167.606 29.1844C168.676 30.3948 170.121 31 171.94 31ZM190.891 22.6028V31H186V15.1702H190.891V17.8652C191.31 16.9764 191.954 16.2766 192.822 15.766C193.689 15.2553 194.704 15 195.868 15C197.088 15 198.165 15.279 199.1 15.8369C200.034 16.3948 200.739 17.1939 201.216 18.234C201.769 17.2506 202.527 16.4657 203.49 15.8794C204.453 15.2931 205.516 15 206.679 15C208.643 15 210.188 15.6005 211.312 16.8014C212.438 18.0024 213 19.6714 213 21.8085V31H208.138V22.3759C208.138 21.3735 207.866 20.5934 207.323 20.0355C206.779 19.4775 206.04 19.1986 205.106 19.1986C204.133 19.1986 203.366 19.4965 202.803 20.0922C202.241 20.6879 201.96 21.5248 201.96 22.6028V31H197.069V22.3759C197.069 21.3735 196.802 20.5934 196.268 20.0355C195.734 19.4775 195 19.1986 194.066 19.1986C193.093 19.1986 192.321 19.4917 191.749 20.078C191.177 20.6643 190.891 21.5059 190.891 22.6028Z" fill="#D8D8D8"/>
<circle cx="214.5" cy="13.5" r="2.5" fill="white"/>
<path fill-rule="evenodd" clip-rule="evenodd" d="M27.5 28C34.9558 28 41 21.732 41 14C41 6.26801 34.9558 0 27.5 0C20.0442 0 14 6.26801 14 14C14 14.0031 14 14.0063 14 14.0094C13.8341 14.0032 13.6674 14 13.5 14C6.04416 14 0 20.268 0 28C0 35.732 6.04416 42 13.5 42C20.9558 42 27 35.732 27 28C27 27.9969 27 27.9937 27 27.9906C27.1659 27.9968 27.3326 28 27.5 28ZM27 27.9906C19.7788 27.7179 14.0048 21.5635 14 14.0094C21.2212 14.2821 26.9952 20.4365 27 27.9906Z" fill="#D8D8D8"/>
</svg>
