<svg width="230" height="42" viewBox="0 0 230 42" fill="none" xmlns="http://www.w3.org/2000/svg">
<path fill-rule="evenodd" clip-rule="evenodd" d="M132.5 14C133.546 14 134.391 13.7079 135.034 13.1238C135.678 12.5396 136 11.802 136 10.9109C136 10.0594 135.678 9.36139 135.034 8.81683C134.391 8.27228 133.546 8 132.5 8C131.454 8 130.609 8.28713 129.966 8.86139C129.322 9.43564 129 10.1485 129 11C129 11.8515 129.322 12.5644 129.966 13.1386C130.609 13.7129 131.454 14 132.5 14ZM68 31V26.5143H58.5827V11H53V31H68ZM78 31C79.7255 31 81.2745 30.6571 82.6471 29.9714C84.0196 29.2857 85.0882 28.3333 85.8529 27.1143C86.6176 25.8952 87 24.5143 87 22.9714C87 21.4286 86.6176 20.0524 85.8529 18.8429C85.0882 17.6333 84.0196 16.6905 82.6471 16.0143C81.2745 15.3381 79.7255 15 78 15C76.2745 15 74.7304 15.3381 73.3676 16.0143C72.0049 16.6905 70.9363 17.6381 70.1618 18.8571C69.3873 20.0762 69 21.4476 69 22.9714C69 24.5143 69.3873 25.8952 70.1618 27.1143C70.9363 28.3333 72.0098 29.2857 73.3824 29.9714C74.7549 30.6571 76.2941 31 78 31ZM75.9825 26.064C76.6374 26.688 77.4766 27 78.5 27C79.5234 27 80.3626 26.688 81.0175 26.064C81.6725 25.4399 82 24.5762 82 23.4729C82 22.3876 81.6725 21.5375 81.0175 20.9225C80.3626 20.3075 79.5234 20 78.5 20C77.4766 20 76.6374 20.3075 75.9825 20.9225C75.3275 21.5375 75 22.3876 75 23.4729C75 24.5762 75.3275 25.4399 75.9825 26.064ZM97.7229 37C100.718 37 103.013 36.2657 104.608 34.7971C106.203 33.3285 107 31.1256 107 28.1883V15.2626H101.72V17.1883C100.669 15.7294 99.0162 15 96.7601 15C95.3598 15 94.0665 15.3161 92.8801 15.9483C91.6937 16.5805 90.7504 17.4752 90.0502 18.6326C89.3501 19.79 89 21.1176 89 22.6154C89 24.1326 89.3501 25.4699 90.0502 26.6273C90.7504 27.7847 91.6937 28.6795 92.8801 29.3117C94.0665 29.9439 95.3598 30.2599 96.7601 30.2599C98.8217 30.2599 100.387 29.6375 101.457 28.3926V28.9178C101.457 30.1821 101.117 31.1353 100.436 31.7772C99.7553 32.4191 98.6856 32.7401 97.2269 32.7401C96.2739 32.7401 95.3063 32.5893 94.3242 32.2878C93.342 31.9863 92.53 31.5729 91.8882 31.0477L89.8752 34.9284C90.8282 35.6092 91.9854 36.1247 93.3468 36.4748C94.7083 36.8249 96.1669 37 97.7229 37ZM95.0042 25.1584C95.6737 25.7195 96.5105 26 97.5148 26C98.519 26 99.3509 25.7195 100.011 25.1584C100.67 24.5973 101 23.8733 101 22.9864C101 22.0995 100.675 21.3801 100.025 20.8281C99.3755 20.276 98.5387 20 97.5148 20C96.4909 20 95.6491 20.276 94.9895 20.8281C94.3298 21.3801 94 22.0995 94 22.9864C94 23.8733 94.3347 24.5973 95.0042 25.1584ZM118 31C119.725 31 121.275 30.6571 122.647 29.9714C124.02 29.2857 125.088 28.3333 125.853 27.1143C126.618 25.8952 127 24.5143 127 22.9714C127 21.4286 126.618 20.0524 125.853 18.8429C125.088 17.6333 124.02 16.6905 122.647 16.0143C121.275 15.3381 119.725 15 118 15C116.275 15 114.73 15.3381 113.368 16.0143C112.005 16.6905 110.936 17.6381 110.162 18.8571C109.387 20.0762 109 21.4476 109 22.9714C109 24.5143 109.387 25.8952 110.162 27.1143C110.936 28.3333 112.01 29.2857 113.382 29.9714C114.755 30.6571 116.294 31 118 31ZM115.982 26.064C116.637 26.688 117.477 27 118.5 27C119.523 27 120.363 26.688 121.018 26.064C121.673 25.4399 122 24.5762 122 23.4729C122 22.3876 121.673 21.5375 121.018 20.9225C120.363 20.3075 119.523 20 118.5 20C117.477 20 116.637 20.3075 115.982 20.9225C115.327 21.5375 115 22.3876 115 23.4729C115 24.5762 115.327 25.4399 115.982 26.064ZM134 16V32H129V16H134ZM143.634 36V29.1785C144.741 30.2497 146.234 30.7852 148.112 30.7852C149.575 30.7852 150.904 30.4611 152.1 29.8128C153.297 29.1644 154.245 28.2436 154.947 27.0503C155.649 25.857 156 24.4711 156 22.8926C156 21.3141 155.649 19.9282 154.947 18.7349C154.245 17.5416 153.297 16.6208 152.1 15.9725C150.904 15.3242 149.575 15 148.112 15C145.997 15 144.415 15.5919 143.367 16.7758V15.2537H138V36H143.634ZM144.982 26.064C145.637 26.688 146.477 27 147.5 27C148.523 27 149.363 26.688 150.018 26.064C150.673 25.4399 151 24.5853 151 23.5C151 22.4147 150.673 21.5601 150.018 20.936C149.363 20.312 148.523 20 147.5 20C146.477 20 145.637 20.312 144.982 20.936C144.327 21.5601 144 22.4147 144 23.5C144 24.5853 144.327 25.4399 144.982 26.064ZM164.087 31C165.76 31 167.192 30.781 168.383 30.3429C169.574 29.9048 170.474 29.3 171.085 28.5286C171.695 27.7571 172 26.8857 172 25.9143C172 24.7333 171.68 23.8143 171.04 23.1571C170.401 22.5 169.648 22.0476 168.781 21.8C167.915 21.5524 166.823 21.3333 165.504 21.1429C164.461 20.9905 163.713 20.8429 163.26 20.7C162.807 20.5571 162.581 20.3048 162.581 19.9429C162.581 19.619 162.787 19.3571 163.201 19.1571C163.614 18.9571 164.264 18.8571 165.15 18.8571C166.803 18.8571 168.339 19.2381 169.756 20L171.439 16.3143C170.671 15.8952 169.717 15.5714 168.575 15.3429C167.433 15.1143 166.281 15 165.12 15C163.486 15 162.084 15.2238 160.912 15.6714C159.741 16.119 158.85 16.7286 158.24 17.5C157.63 18.2714 157.325 19.1524 157.325 20.1429C157.325 21.3429 157.65 22.2762 158.299 22.9429C158.949 23.6095 159.721 24.0667 160.617 24.3143C161.513 24.5619 162.6 24.7619 163.88 24.9143C164.884 25.0476 165.617 25.1857 166.08 25.3286C166.542 25.4714 166.774 25.7143 166.774 26.0571C166.774 26.4 166.582 26.6619 166.198 26.8429C165.814 27.0238 165.169 27.1143 164.264 27.1143C163.28 27.1143 162.285 26.9857 161.281 26.7286C160.278 26.4714 159.411 26.1238 158.683 25.6857L157 29.4C157.787 29.8762 158.831 30.2619 160.13 30.5571C161.429 30.8524 162.748 31 164.087 31ZM183.481 31.5064C182.649 31.8354 181.767 32 180.836 32C178.755 32 177.096 31.3999 175.858 30.1996C174.619 28.9994 174 27.199 174 24.7985V16H179.647V23.8984C179.647 25.0793 179.875 25.9407 180.33 26.4828C180.786 27.0248 181.45 27.2958 182.322 27.2958C183.213 27.2958 183.941 26.9909 184.506 26.3811C185.071 25.7713 185.353 24.8373 185.353 23.5789V16H191V31.7387H185.621V30.0544C185.026 30.6933 184.313 31.1773 183.481 31.5064ZM199.546 31V23.1887C199.546 22.0079 199.799 21.127 200.305 20.5463C200.811 19.9655 201.492 19.6751 202.348 19.6751C203.944 19.6751 204.742 20.7495 204.742 22.8984V31H210.288V23.1887C210.288 22.0079 210.541 21.127 211.046 20.5463C211.552 19.9655 212.224 19.6751 213.061 19.6751C213.819 19.6751 214.408 19.9365 214.826 20.4592C215.245 20.9819 215.454 21.7949 215.454 22.8984V31H221V21.9982C221 19.6558 220.421 17.9038 219.263 16.7423C218.105 15.5808 216.554 15 214.608 15C213.479 15 212.438 15.2129 211.484 15.6388C210.531 16.0647 209.743 16.6745 209.12 17.4682C208.575 16.6358 207.865 16.0163 206.989 15.6098C206.114 15.2033 205.121 15 204.012 15C203.058 15 202.178 15.1597 201.37 15.4791C200.563 15.7985 199.867 16.2777 199.283 16.9165V15.2613H194V31H199.546ZM229.002 30.1467C228.337 30.7156 227.503 31 226.5 31C225.518 31 224.689 30.7156 224.013 30.1467C223.338 29.5778 223 28.8578 223 27.9867C223 27.0978 223.333 26.3778 223.998 25.8267C224.663 25.2756 225.497 25 226.5 25C227.523 25 228.363 25.2756 229.018 25.8267C229.673 26.3778 230 27.0978 230 27.9867C230 28.8578 229.667 29.5778 229.002 30.1467Z" fill="#D8D8D8"/>
<path fill-rule="evenodd" clip-rule="evenodd" d="M21 0L42 42H30.8074C16.6534 42 7.44761 27.1048 13.7775 14.4451L21 0Z" fill="#D8D8D8"/>
<circle cx="6" cy="36" r="6" fill="#D8D8D8"/>
</svg>
