<svg width="188" height="38" viewBox="0 0 188 38" fill="none" xmlns="http://www.w3.org/2000/svg">
<path fill-rule="evenodd" clip-rule="evenodd" d="M115.443 12.7997C115.135 12.9332 114.807 13 114.46 13C114.121 13 113.805 12.9332 113.511 12.7997C113.217 12.6662 112.956 12.4866 112.729 12.261C112.501 12.0355 112.323 11.773 112.194 11.4738C112.065 11.1745 112 10.8545 112 10.5138C112 10.1639 112.065 9.83702 112.194 9.53315C112.323 9.22928 112.501 8.96225 112.729 8.73204C112.956 8.50184 113.217 8.32228 113.511 8.19337C113.805 8.06446 114.121 8 114.46 8C114.807 8 115.135 8.06446 115.443 8.19337C115.75 8.32228 116.02 8.50184 116.251 8.73204C116.483 8.96225 116.666 9.22928 116.799 9.53315C116.933 9.83702 117 10.1639 117 10.5138C117 10.8545 116.933 11.1745 116.799 11.4738C116.666 11.773 116.483 12.0355 116.251 12.261C116.02 12.4866 115.75 12.6662 115.443 12.7997ZM62 30V26.1084H54.0046V9H49V30H62ZM69.5283 31C70.6415 31 71.6557 30.8129 72.5708 30.4387C73.4858 30.0645 74.2712 29.5307 74.9269 28.8372C75.5825 28.1437 76.092 27.3006 76.4552 26.3078C76.8184 25.3149 77 24.1999 77 22.9626C77 21.7353 76.8184 20.6302 76.4552 19.6473C76.092 18.6645 75.5825 17.8288 74.9269 17.1403C74.2712 16.4518 73.4858 15.923 72.5708 15.5538C71.6557 15.1846 70.6415 15 69.5283 15C68.4057 15 67.3844 15.1846 66.4646 15.5538C65.5448 15.923 64.7524 16.4518 64.0873 17.1403C63.4222 17.8288 62.908 18.6645 62.5448 19.6473C62.1816 20.6302 62 21.7353 62 22.9626C62 24.1999 62.1816 25.3149 62.5448 26.3078C62.908 27.3006 63.4222 28.1437 64.0873 28.8372C64.7524 29.5307 65.5448 30.0645 66.4646 30.4387C67.3844 30.8129 68.4057 31 69.5283 31ZM67.7286 25.8842C68.2143 26.6281 68.981 27 70.0286 27C71.0476 27 71.7976 26.6281 72.2786 25.8842C72.7595 25.1404 73 24.0099 73 22.4926C73 20.9754 72.7595 19.8473 72.2786 19.1084C71.7976 18.3695 71.0476 18 70.0286 18C68.981 18 68.2143 18.3695 67.7286 19.1084C67.2429 19.8473 67 20.9754 67 22.4926C67 24.0099 67.2429 25.1404 67.7286 25.8842ZM85.9548 35C87.1729 35 88.2534 34.8513 89.1965 34.5538C90.1395 34.2564 90.9352 33.8621 91.5835 33.3711C92.2318 32.8801 92.723 32.3182 93.057 31.6856C93.391 31.0529 93.558 30.406 93.558 29.745C93.558 29.0368 93.4229 28.4537 93.1528 27.9958C92.8826 27.5378 92.5265 27.1719 92.0845 26.898C91.6424 26.6242 91.1365 26.4259 90.5668 26.3031C89.9971 26.1804 89.4175 26.093 88.8281 26.0411C88.2387 25.9891 87.6591 25.9561 87.0894 25.9419C86.5196 25.9278 86.0138 25.8994 85.5717 25.8569C85.1297 25.8144 84.7736 25.7389 84.5034 25.6303C84.2333 25.5217 84.0982 25.3447 84.0982 25.0992C84.0982 24.8536 84.2652 24.6364 84.5992 24.4476C85.0216 24.5042 85.4735 24.5326 85.9548 24.5326C86.8193 24.5326 87.6297 24.4216 88.3861 24.1997C89.1424 23.9778 89.7981 23.6615 90.3531 23.2507C90.9082 22.8399 91.3453 22.3418 91.6645 21.7564C91.9838 21.1709 92.1434 20.5099 92.1434 19.7734C92.1434 19.3201 92.0747 18.881 91.9371 18.4561L93.057 18.2153C93.4008 18.1398 93.6439 18.0312 93.7863 17.8895C93.9288 17.7479 94 17.5543 94 17.3088V15.7082H89.388C88.8969 15.4816 88.3639 15.3069 87.7893 15.1841C87.2146 15.0614 86.6031 15 85.9548 15C85.0609 15 84.2308 15.111 83.4646 15.3329C82.6984 15.5548 82.0329 15.8711 81.4681 16.2819C80.9032 16.6926 80.4587 17.1931 80.1346 17.7833C79.8104 18.3735 79.6483 19.0368 79.6483 19.7734C79.6483 20.661 79.8767 21.44 80.3335 22.1105C80.7903 22.7809 81.4165 23.3192 82.2122 23.7252C81.8585 23.8857 81.554 24.0699 81.2986 24.2776C81.0432 24.4854 80.832 24.7026 80.665 24.9292C80.498 25.1558 80.3752 25.3895 80.2967 25.6303C80.2181 25.8711 80.1788 26.1001 80.1788 26.3173C80.1788 26.8366 80.2819 27.2663 80.4882 27.6062C80.6945 27.9462 80.9695 28.2247 81.3134 28.4419C80.5963 28.6969 80.0314 29.0486 79.6189 29.4972C79.2063 29.9457 79 30.4958 79 31.1473C79 31.6478 79.1375 32.1294 79.4126 32.5921C79.6876 33.0548 80.1125 33.4632 80.6871 33.8173C81.2618 34.1714 81.9838 34.457 82.8531 34.6742C83.7225 34.8914 84.7564 35 85.9548 35ZM84.1027 21.8462C84.3539 21.9487 84.653 22 85 22C85.7032 22 86.2123 21.812 86.5274 21.4359C86.8425 21.0598 87 20.5739 87 19.978C87 19.3626 86.8425 18.8791 86.5274 18.5275C86.2123 18.1758 85.7032 18 85 18C84.2968 18 83.7877 18.1758 83.4726 18.5275C83.1575 18.8791 83 19.3626 83 19.978C83 20.2711 83.0388 20.5397 83.1164 20.7839C83.1941 21.0281 83.3151 21.2405 83.4795 21.4212C83.6438 21.602 83.8516 21.7436 84.1027 21.8462ZM84.9032 32C84.3318 32 83.8594 31.9623 83.4862 31.8869C83.1129 31.8116 82.8157 31.7085 82.5945 31.5779C82.3733 31.4472 82.2189 31.2915 82.1313 31.1106C82.0438 30.9296 82 30.7286 82 30.5075C82 30.196 82.0853 29.9171 82.2558 29.6709C82.4263 29.4246 82.6452 29.201 82.9124 29C83.3088 29.0503 83.7097 29.0829 84.1152 29.098C84.5207 29.1131 84.9124 29.1307 85.2903 29.1508C85.6682 29.1709 86.0207 29.201 86.3479 29.2412C86.6751 29.2814 86.9608 29.3467 87.2051 29.4372C87.4493 29.5276 87.6429 29.6482 87.7857 29.799C87.9286 29.9497 88 30.1508 88 30.402C88 30.6332 87.9539 30.8467 87.8618 31.0427C87.7696 31.2387 87.606 31.407 87.371 31.5477C87.1359 31.6884 86.8203 31.799 86.424 31.8794C86.0276 31.9598 85.5207 32 84.9032 32ZM104.571 30.4387C103.656 30.8129 102.642 31 101.528 31C100.406 31 99.3844 30.8129 98.4646 30.4387C97.5448 30.0645 96.7524 29.5307 96.0873 28.8372C95.4222 28.1437 94.908 27.3006 94.5448 26.3078C94.1816 25.3149 94 24.1999 94 22.9626C94 21.7353 94.1816 20.6302 94.5448 19.6473C94.908 18.6645 95.4222 17.8288 96.0873 17.1403C96.7524 16.4518 97.5448 15.923 98.4646 15.5538C99.3844 15.1846 100.406 15 101.528 15C102.642 15 103.656 15.1846 104.571 15.5538C105.486 15.923 106.271 16.4518 106.927 17.1403C107.583 17.8288 108.092 18.6645 108.455 19.6473C108.818 20.6302 109 21.7353 109 22.9626C109 24.1999 108.818 25.3149 108.455 26.3078C108.092 27.3006 107.583 28.1437 106.927 28.8372C106.271 29.5307 105.486 30.0645 104.571 30.4387ZM102.029 27C100.981 27 100.214 26.6281 99.7286 25.8842C99.2429 25.1404 99 24.0099 99 22.4926C99 20.9754 99.2429 19.8473 99.7286 19.1084C100.214 18.3695 100.981 18 102.029 18C103.048 18 103.798 18.3695 104.279 19.1084C104.76 19.8473 105 20.9754 105 22.4926C105 24.0099 104.76 25.1404 104.279 25.8842C103.798 26.6281 103.048 27 102.029 27ZM116 30V15H112V30H116ZM124.384 28.2569V34H120V14.2886H122.715C122.989 14.2886 123.217 14.3511 123.401 14.4762C123.585 14.6013 123.714 14.7888 123.79 15.039L124.115 16.1356C124.398 15.8182 124.702 15.5296 125.027 15.2698C125.353 15.0101 125.701 14.7864 126.074 14.5988C126.446 14.4113 126.847 14.2646 127.276 14.1587C127.705 14.0529 128.174 14 128.683 14C129.446 14 130.154 14.1732 130.804 14.5195C131.455 14.8658 132.015 15.366 132.487 16.0202C132.958 16.6744 133.328 17.4752 133.597 18.4228C133.866 19.3704 134 20.4454 134 21.6479C134 22.7734 133.847 23.8124 133.54 24.7648C133.234 25.7172 132.805 26.5445 132.254 27.2468C131.702 27.949 131.042 28.4974 130.274 28.8918C129.505 29.2862 128.655 29.4834 127.721 29.4834C126.958 29.4834 126.316 29.3728 125.798 29.1515C125.279 28.9303 124.808 28.632 124.384 28.2569ZM127.25 27C126.833 27 126.435 26.9235 126.056 26.7706C125.676 26.6176 125.324 26.3487 125 25.9638V19.4507C125.185 19.2138 125.37 19.0041 125.556 18.8215C125.741 18.639 125.942 18.4885 126.16 18.3701C126.377 18.2516 126.613 18.1604 126.868 18.0962C127.123 18.0321 127.407 18 127.722 18C128.065 18 128.375 18.074 128.653 18.222C128.931 18.3701 129.169 18.6143 129.368 18.9548C129.567 19.2952 129.722 19.7418 129.833 20.2944C129.944 20.847 130 21.528 130 22.3372C130 23.1859 129.931 23.9062 129.792 24.4984C129.653 25.0905 129.461 25.5715 129.215 25.9416C128.97 26.3117 128.681 26.5806 128.347 26.7484C128.014 26.9161 127.648 27 127.25 27ZM143.309 30.6109C142.502 30.8703 141.574 31 140.525 31C140 31 139.475 30.9501 138.95 30.8503C138.426 30.7505 137.918 30.6158 137.428 30.4462C136.938 30.2766 136.485 30.0745 136.069 29.84C135.653 29.6056 135.297 29.3536 135 29.0842L136.069 27.3779C136.198 27.1784 136.351 27.0212 136.53 26.9065C136.708 26.7917 136.941 26.7343 137.228 26.7343C137.495 26.7343 137.735 26.7942 137.948 26.9139C138.161 27.0337 138.391 27.1634 138.639 27.3031C138.886 27.4428 139.176 27.5725 139.507 27.6922C139.839 27.812 140.257 27.8718 140.762 27.8718C141.119 27.8718 141.421 27.8344 141.668 27.7596C141.916 27.6848 142.114 27.5825 142.262 27.4528C142.411 27.323 142.52 27.1784 142.589 27.0187C142.658 26.8591 142.693 26.6944 142.693 26.5248C142.693 26.2155 142.589 25.961 142.381 25.7615C142.173 25.5619 141.901 25.3898 141.564 25.2451C141.228 25.1004 140.844 24.9657 140.413 24.841C139.983 24.7162 139.545 24.5741 139.099 24.4144C138.653 24.2548 138.215 24.0627 137.785 23.8382C137.354 23.6137 136.97 23.3293 136.634 22.985C136.297 22.6408 136.025 22.2192 135.817 21.7203C135.609 21.2214 135.505 20.6177 135.505 19.9093C135.505 19.2507 135.631 18.6246 135.884 18.0309C136.136 17.4372 136.515 16.9158 137.02 16.4668C137.525 16.0178 138.158 15.6611 138.921 15.3966C139.683 15.1322 140.574 15 141.594 15C142.149 15 142.686 15.0499 143.205 15.1497C143.725 15.2495 144.213 15.3891 144.668 15.5688C145.124 15.7484 145.54 15.9604 145.916 16.2049C146.292 16.4493 146.624 16.7162 146.911 17.0056L145.871 18.637C145.752 18.8266 145.626 18.9613 145.493 19.0412C145.359 19.121 145.188 19.1609 144.98 19.1609C144.762 19.1609 144.545 19.1135 144.327 19.0187L143.621 18.7119C143.369 18.6021 143.084 18.4998 142.767 18.4051C142.45 18.3103 142.089 18.2629 141.683 18.2629C141.099 18.2629 140.651 18.3751 140.339 18.5996C140.027 18.8241 139.871 19.136 139.871 19.5351C139.871 19.8244 139.973 20.0639 140.176 20.2535C140.379 20.4431 140.649 20.6102 140.985 20.7549C141.322 20.8996 141.703 21.0368 142.129 21.1665C142.554 21.2962 142.99 21.4409 143.436 21.6006C143.881 21.7602 144.317 21.9473 144.743 22.1618C145.168 22.3764 145.55 22.6408 145.886 22.9551C146.223 23.2694 146.493 23.6511 146.696 24.1001C146.899 24.5491 147 25.0879 147 25.7166C147 26.4849 146.861 27.1933 146.584 27.8419C146.307 28.4905 145.894 29.0493 145.344 29.5182C144.795 29.9872 144.116 30.3514 143.309 30.6109ZM154.243 30C154.739 30 155.196 29.9549 155.613 29.8647C156.03 29.7745 156.42 29.651 156.782 29.4943C157.144 29.3376 157.484 29.1477 157.802 28.9245C158.12 28.7013 158.428 28.452 158.726 28.1766L159.009 29.0313C159.187 29.5252 159.565 29.7721 160.14 29.7721H163V15H158.383V25.5271C157.966 25.8879 157.537 26.1681 157.095 26.3675C156.653 26.567 156.179 26.6667 155.672 26.6667C154.997 26.6667 154.486 26.4672 154.138 26.0684C153.791 25.6695 153.617 25.1045 153.617 24.3732V15H149V24.3732C149 25.1899 149.114 25.9402 149.343 26.6239C149.571 27.3077 149.909 27.9012 150.355 28.4046C150.802 28.9079 151.351 29.2996 152.001 29.5798C152.651 29.8599 153.399 30 154.243 30ZM170.541 19.3162V30H166V15.2279H168.812C169.095 15.2279 169.332 15.2896 169.523 15.4131C169.713 15.5366 169.847 15.7217 169.925 15.9687L170.174 16.7664C170.428 16.51 170.692 16.2749 170.965 16.0613C171.239 15.8476 171.534 15.6624 171.852 15.5057C172.169 15.349 172.511 15.2255 172.877 15.1353C173.243 15.0451 173.646 15 174.085 15C175.003 15 175.762 15.2303 176.363 15.6909C176.963 16.1515 177.42 16.7664 177.732 17.5356C177.986 17.0798 178.296 16.6904 178.662 16.3675C179.029 16.0446 179.424 15.7835 179.849 15.584C180.274 15.3846 180.723 15.2374 181.196 15.1425C181.67 15.0475 182.141 15 182.61 15C183.479 15 184.25 15.1258 184.924 15.3775C185.598 15.6292 186.162 15.9948 186.616 16.4744C187.07 16.9539 187.414 17.5427 187.648 18.2407C187.883 18.9387 188 19.7293 188 20.6125V30H183.459V20.6125C183.459 19.0836 182.786 18.3191 181.438 18.3191C180.823 18.3191 180.313 18.5161 179.907 18.9103C179.502 19.3044 179.3 19.8718 179.3 20.6125V30H174.759V20.6125C174.759 19.7673 174.588 19.1738 174.246 18.8319C173.905 18.49 173.402 18.3191 172.738 18.3191C172.328 18.3191 171.939 18.4093 171.573 18.5897C171.207 18.7702 170.863 19.0123 170.541 19.3162Z" fill="#D8D8D8"/>
<rect width="38" height="38" rx="5.6" fill="#D8D8D8"/>
<path fill-rule="evenodd" clip-rule="evenodd" d="M19 27.25L10.1832 32.0398L11.8671 21.8949L4.73415 14.7102L14.5916 13.2301L19 4L23.4084 13.2301L33.2658 14.7102L26.1329 21.8949L27.8168 32.0398L19 27.25Z" fill="white"/>
</svg>
