<svg width="190" height="33" viewBox="0 0 190 33" fill="none" xmlns="http://www.w3.org/2000/svg">
<path fill-rule="evenodd" clip-rule="evenodd" d="M114 5V9H109V5H114ZM54 23.2542V27H40V6H44.6076V23.2542H54ZM66.4756 26.0909C65.3477 26.697 64.032 27 62.5282 27C60.9868 27 59.6523 26.697 58.5244 26.0909C57.3966 25.4848 56.5273 24.6184 55.9164 23.4915C55.3055 22.3646 55 21.0341 55 19.5C55 17.9659 55.3055 16.6402 55.9164 15.5227C56.5273 14.4053 57.3966 13.5388 58.5244 12.9233C59.6523 12.3078 60.9868 12 62.5282 12C64.032 12 65.3477 12.3078 66.4756 12.9233C67.6034 13.5388 68.4727 14.4053 69.0836 15.5227C69.6945 16.6402 70 17.9659 70 19.5C70 21.0341 69.6945 22.3646 69.0836 23.4915C68.4727 24.6184 67.6034 25.4848 66.4756 26.0909ZM63.5302 24C62.3836 24 61.5086 23.6313 60.9052 22.8939C60.3017 22.1566 60 21.0202 60 19.4848C60 17.9697 60.3068 16.8434 60.9203 16.1061C61.5338 15.3687 62.4037 15 63.5302 15C64.6365 15 65.4914 15.3687 66.0948 16.1061C66.6983 16.8434 67 17.9697 67 19.4848C67 21.0202 66.6983 22.1566 66.0948 22.8939C65.4914 23.6313 64.6365 24 63.5302 24ZM86.9331 31.2218C85.5551 32.4073 83.5279 33 80.8513 33C78.4721 33 76.3903 32.5578 74.6059 31.6734L75.29 28.5121C76.1822 28.9449 77.0843 29.2648 77.9963 29.4718C78.9083 29.6788 79.8104 29.7823 80.7026 29.7823C81.9913 29.7823 82.9529 29.5 83.5874 28.9355L83.7185 28.8099C84.2655 28.2458 84.539 27.422 84.539 26.3387L84.5384 23.8372L84.519 23.8675C84.3199 24.1548 84.0788 24.4328 83.7955 24.7016C83.2999 25.172 82.7001 25.5531 81.9963 25.8448C81.2924 26.1364 80.5341 26.2823 79.7212 26.2823C78.4126 26.2823 77.2528 25.9859 76.2416 25.3931C75.2305 24.8004 74.4374 23.9677 73.8625 22.8952C73.2875 21.8226 73 20.5712 73 19.1411C73 17.711 73.2875 16.4644 73.8625 15.4012C74.4374 14.338 75.2305 13.5054 76.2416 12.9032C77.2528 12.3011 78.4126 12 79.7212 12C80.9504 12 82.0359 12.287 82.9777 12.8609L83.2068 13.0082C83.7268 13.3608 84.1439 13.7759 84.4581 14.2534L84.5384 14.3845L84.539 12.3669H89V26C89 28.2957 88.311 30.0363 86.9331 31.2218ZM80.5294 23C79.451 23 78.5931 22.6412 77.9559 21.9236C77.3186 21.2061 77 20.2267 77 18.9855C77 17.7442 77.3137 16.7697 77.9412 16.0618C78.5686 15.3539 79.4314 15 80.5294 15C81.6274 15 82.4804 15.3588 83.0882 16.0764C83.6961 16.7939 84 17.7636 84 18.9855C84 20.2461 83.6912 21.2303 83.0735 21.9382C82.4559 22.6461 81.6078 23 80.5294 23ZM102.476 26.0909C101.348 26.697 100.032 27 98.5282 27C96.9868 27 95.6523 26.697 94.5244 26.0909C93.3966 25.4848 92.5273 24.6184 91.9164 23.4915C91.3055 22.3646 91 21.0341 91 19.5C91 17.9659 91.3055 16.6402 91.9164 15.5227C92.5273 14.4053 93.3966 13.5388 94.5244 12.9233C95.6523 12.3078 96.9868 12 98.5282 12C100.032 12 101.348 12.3078 102.476 12.9233C103.603 13.5388 104.473 14.4053 105.084 15.5227C105.695 16.6402 106 17.9659 106 19.5C106 21.0341 105.695 22.3646 105.084 23.4915C104.473 24.6184 103.603 25.4848 102.476 26.0909ZM98.5302 24C97.3836 24 96.5086 23.6313 95.9052 22.8939C95.3017 22.1566 95 21.0202 95 19.4848C95 17.9697 95.3068 16.8434 95.9203 16.1061C96.5338 15.3687 97.4037 15 98.5302 15C99.6365 15 100.491 15.3687 101.095 16.1061C101.698 16.8434 102 17.9697 102 19.4848C102 21.0202 101.698 22.1566 101.095 22.8939C100.491 23.6313 99.6365 24 98.5302 24ZM113 12H109V27H113V12ZM121.684 24.7366L121.685 33H117.236V16.5082C117.236 15.8234 117.221 15.1338 117.192 14.4395C117.162 13.7452 117.098 13.0557 117 12.3709H121.184L121.467 14.8107L121.514 14.6987C121.859 13.9458 122.412 13.3315 123.173 12.856C124.087 12.2853 125.152 12 126.37 12C127.667 12 128.811 12.3186 129.803 12.9558C130.795 13.5931 131.576 14.4871 132.145 15.6379C132.715 16.7887 133 18.1155 133 19.6182C133 21.1209 132.715 22.4334 132.145 23.5557C131.576 24.678 130.795 25.5435 129.803 26.1522C128.811 26.7609 127.667 27.0652 126.37 27.0652C125.152 27.0652 124.087 26.7894 123.173 26.2378L122.951 26.0953C122.447 25.7523 122.045 25.3348 121.746 24.8428L121.684 24.7366ZM124.515 24C123.373 24 122.502 23.6162 121.901 22.8485C121.3 22.0808 121 20.9697 121 19.5152C121 18.0606 121.3 16.9444 121.901 16.1667C122.502 15.3889 123.373 15 124.515 15C125.617 15 126.473 15.404 127.084 16.2121C127.695 17.0202 128 18.1414 128 19.5758C128 21.0101 127.7 22.1061 127.099 22.8636C126.498 23.6212 125.637 24 124.515 24ZM145.32 25.8068C144.2 26.6023 142.657 27 140.69 27C137.866 27 135.636 26.4129 134 25.2386L135.198 22.2557C135.977 22.8049 136.848 23.2263 137.812 23.5199C138.776 23.8134 139.745 23.9602 140.719 23.9602C141.479 23.9602 142.063 23.8419 142.472 23.6051C142.881 23.3684 143.085 23.0417 143.085 22.625C143.085 22.2652 142.939 21.9858 142.647 21.7869C142.355 21.5881 141.839 21.4034 141.099 21.233L138.674 20.6648C137.233 20.3807 136.176 19.9072 135.504 19.2443C134.833 18.5814 134.497 17.7008 134.497 16.6023C134.497 15.7121 134.764 14.9214 135.3 14.2301C135.836 13.5388 136.581 12.9943 137.535 12.5966C138.489 12.1989 139.599 12 140.865 12C141.936 12 142.969 12.1562 143.962 12.4688C144.955 12.7812 145.861 13.2216 146.679 13.7898L145.452 16.6591C144.692 16.1477 143.918 15.7595 143.129 15.4943C142.34 15.2292 141.576 15.0966 140.836 15.0966C140.115 15.0966 139.551 15.2197 139.142 15.4659C138.733 15.7121 138.528 16.053 138.528 16.4886C138.528 16.8106 138.65 17.0663 138.893 17.2557C139.137 17.4451 139.57 17.6155 140.193 17.767L142.676 18.3068C144.196 18.6477 145.296 19.1591 145.978 19.8409C146.659 20.5227 147 21.4318 147 22.5682C147 23.9318 146.44 25.0114 145.32 25.8068ZM155.433 27C156.526 27 157.479 26.733 158.294 26.199C158.886 25.8107 159.374 25.2914 159.759 24.6411L159.774 24.6139L159.774 26.767H164V12H159.63V20.1553C159.63 21.1845 159.353 22.0097 158.797 22.6311C158.241 23.2524 157.522 23.5631 156.641 23.5631C155.855 23.5631 155.275 23.3447 154.901 22.9078C154.528 22.4709 154.341 21.7961 154.341 20.8835V12H150V20.7961C150 22.8738 150.45 24.4272 151.351 25.4563C152.252 26.4854 153.613 27 155.433 27ZM171.571 18.9519V27H167.23V16.5577C167.23 15.8654 167.216 15.1683 167.187 14.4663C167.158 13.7644 167.096 13.0673 167 12.375H171.083L171.327 14.5931L171.46 14.3612C171.838 13.7337 172.331 13.2207 172.937 12.8221C173.771 12.274 174.772 12 175.941 12C177.264 12 178.313 12.3413 179.089 13.024L179.252 13.1757C179.621 13.5421 179.924 13.9963 180.162 14.5382L180.242 14.7354L180.338 14.5709C180.744 13.9199 181.281 13.3706 181.95 12.9231C182.87 12.3077 183.915 12 185.084 12C186.751 12 187.988 12.5096 188.792 13.5288C189.598 14.5481 190 16.0865 190 18.1442V27H185.659V18.2885C185.659 17.2885 185.496 16.5577 185.17 16.0962C184.844 15.6346 184.307 15.4038 183.56 15.4038C182.697 15.4038 182.017 15.7163 181.519 16.3413C181.02 16.9663 180.771 17.8365 180.771 18.9519V27H176.43V18.2885C176.43 17.2885 176.267 16.5577 175.941 16.0962C175.615 15.6346 175.088 15.4038 174.36 15.4038C173.478 15.4038 172.793 15.7163 172.304 16.3413C171.816 16.9663 171.571 17.8365 171.571 18.9519Z" fill="#D8D8D8"/>
<path d="M0 0V2H28V0H0Z" fill="#D8D8D8"/>
<path d="M0 5V7H28V5H0Z" fill="#D8D8D8"/>
<path d="M0 10V12H28V10H0Z" fill="#D8D8D8"/>
<path d="M0 14V16H28V14H0Z" fill="#D8D8D8"/>
<path d="M0 19V21H28V19H0Z" fill="#D8D8D8"/>
<path d="M0 24V26H28V24H0Z" fill="#D8D8D8"/>
<path d="M0 29V31H28V29H0Z" fill="#D8D8D8"/>
</svg>
